<?xml version="1.0" encoding="utf-8" standalone="no"?>
<!DOCTYPE svg PUBLIC "-//W3C//DTD SVG 1.1//EN"
  "http://www.w3.org/Graphics/SVG/1.1/DTD/svg11.dtd">
<svg xmlns:xlink="http://www.w3.org/1999/xlink" width="504pt" height="360pt" viewBox="0 0 504 360" xmlns="http://www.w3.org/2000/svg" version="1.1">
 <metadata>
  <rdf:RDF xmlns:dc="http://purl.org/dc/elements/1.1/" xmlns:cc="http://creativecommons.org/ns#" xmlns:rdf="http://www.w3.org/1999/02/22-rdf-syntax-ns#">
   <cc:Work>
    <dc:type rdf:resource="http://purl.org/dc/dcmitype/StillImage"/>
    <dc:date>2026-04-29T11:44:49.179690</dc:date>
    <dc:format>image/svg+xml</dc:format>
    <dc:creator>
     <cc:Agent>
      <dc:title>Matplotlib v3.10.0, https://matplotlib.org/</dc:title>
     </cc:Agent>
    </dc:creator>
   </cc:Work>
  </rdf:RDF>
 </metadata>
 <defs>
  <style type="text/css">*{stroke-linejoin: round; stroke-linecap: butt}</style>
 </defs>
 <g id="figure_1">
  <g id="patch_1">
   <path d="M 0 360 
L 504 360 
L 504 0 
L 0 0 
z
" style="fill: #ffffff"/>
  </g>
  <g id="axes_1">
   <g id="patch_2">
    <path d="M 73.08 309.78 
L 491.04 309.78 
L 491.04 35.04 
L 73.08 35.04 
z
" style="fill: #ffffff"/>
   </g>
   <g id="matplotlib.axis_1">
    <g id="xtick_1">
     <g id="text_1">
      <!-- 1.40 -->
      <g style="fill: #262626" transform="translate(79.832088 327.638281) scale(0.11 -0.11)">
       <defs>
        <path id="DejaVuSans-31" d="M 794 531 
L 1825 531 
L 1825 4091 
L 703 3866 
L 703 4441 
L 1819 4666 
L 2450 4666 
L 2450 531 
L 3481 531 
L 3481 0 
L 794 0 
L 794 531 
z
" transform="scale(0.015625)"/>
        <path id="DejaVuSans-2e" d="M 684 794 
L 1344 794 
L 1344 0 
L 684 0 
L 684 794 
z
" transform="scale(0.015625)"/>
        <path id="DejaVuSans-34" d="M 2419 4116 
L 825 1625 
L 2419 1625 
L 2419 4116 
z
M 2253 4666 
L 3047 4666 
L 3047 1625 
L 3713 1625 
L 3713 1100 
L 3047 1100 
L 3047 0 
L 2419 0 
L 2419 1100 
L 313 1100 
L 313 1709 
L 2253 4666 
z
" transform="scale(0.015625)"/>
        <path id="DejaVuSans-30" d="M 2034 4250 
Q 1547 4250 1301 3770 
Q 1056 3291 1056 2328 
Q 1056 1369 1301 889 
Q 1547 409 2034 409 
Q 2525 409 2770 889 
Q 3016 1369 3016 2328 
Q 3016 3291 2770 3770 
Q 2525 4250 2034 4250 
z
M 2034 4750 
Q 2819 4750 3233 4129 
Q 3647 3509 3647 2328 
Q 3647 1150 3233 529 
Q 2819 -91 2034 -91 
Q 1250 -91 836 529 
Q 422 1150 422 2328 
Q 422 3509 836 4129 
Q 1250 4750 2034 4750 
z
" transform="scale(0.015625)"/>
       </defs>
       <use xlink:href="#DejaVuSans-31"/>
       <use xlink:href="#DejaVuSans-2e" transform="translate(63.623047 0)"/>
       <use xlink:href="#DejaVuSans-34" transform="translate(95.410156 0)"/>
       <use xlink:href="#DejaVuSans-30" transform="translate(159.033203 0)"/>
      </g>
     </g>
    </g>
    <g id="xtick_2">
     <g id="text_2">
      <!-- 2.55 -->
      <g style="fill: #262626" transform="translate(174.822997 327.638281) scale(0.11 -0.11)">
       <defs>
        <path id="DejaVuSans-32" d="M 1228 531 
L 3431 531 
L 3431 0 
L 469 0 
L 469 531 
Q 828 903 1448 1529 
Q 2069 2156 2228 2338 
Q 2531 2678 2651 2914 
Q 2772 3150 2772 3378 
Q 2772 3750 2511 3984 
Q 2250 4219 1831 4219 
Q 1534 4219 1204 4116 
Q 875 4013 500 3803 
L 500 4441 
Q 881 4594 1212 4672 
Q 1544 4750 1819 4750 
Q 2544 4750 2975 4387 
Q 3406 4025 3406 3419 
Q 3406 3131 3298 2873 
Q 3191 2616 2906 2266 
Q 2828 2175 2409 1742 
Q 1991 1309 1228 531 
z
" transform="scale(0.015625)"/>
        <path id="DejaVuSans-35" d="M 691 4666 
L 3169 4666 
L 3169 4134 
L 1269 4134 
L 1269 2991 
Q 1406 3038 1543 3061 
Q 1681 3084 1819 3084 
Q 2600 3084 3056 2656 
Q 3513 2228 3513 1497 
Q 3513 744 3044 326 
Q 2575 -91 1722 -91 
Q 1428 -91 1123 -41 
Q 819 9 494 109 
L 494 744 
Q 775 591 1075 516 
Q 1375 441 1709 441 
Q 2250 441 2565 725 
Q 2881 1009 2881 1497 
Q 2881 1984 2565 2268 
Q 2250 2553 1709 2553 
Q 1456 2553 1204 2497 
Q 953 2441 691 2322 
L 691 4666 
z
" transform="scale(0.015625)"/>
       </defs>
       <use xlink:href="#DejaVuSans-32"/>
       <use xlink:href="#DejaVuSans-2e" transform="translate(63.623047 0)"/>
       <use xlink:href="#DejaVuSans-35" transform="translate(95.410156 0)"/>
       <use xlink:href="#DejaVuSans-35" transform="translate(159.033203 0)"/>
      </g>
     </g>
    </g>
    <g id="xtick_3">
     <g id="text_3">
      <!-- 3.70 -->
      <g style="fill: #262626" transform="translate(269.813906 327.638281) scale(0.11 -0.11)">
       <defs>
        <path id="DejaVuSans-33" d="M 2597 2516 
Q 3050 2419 3304 2112 
Q 3559 1806 3559 1356 
Q 3559 666 3084 287 
Q 2609 -91 1734 -91 
Q 1441 -91 1130 -33 
Q 819 25 488 141 
L 488 750 
Q 750 597 1062 519 
Q 1375 441 1716 441 
Q 2309 441 2620 675 
Q 2931 909 2931 1356 
Q 2931 1769 2642 2001 
Q 2353 2234 1838 2234 
L 1294 2234 
L 1294 2753 
L 1863 2753 
Q 2328 2753 2575 2939 
Q 2822 3125 2822 3475 
Q 2822 3834 2567 4026 
Q 2313 4219 1838 4219 
Q 1578 4219 1281 4162 
Q 984 4106 628 3988 
L 628 4550 
Q 988 4650 1302 4700 
Q 1616 4750 1894 4750 
Q 2613 4750 3031 4423 
Q 3450 4097 3450 3541 
Q 3450 3153 3228 2886 
Q 3006 2619 2597 2516 
z
" transform="scale(0.015625)"/>
        <path id="DejaVuSans-37" d="M 525 4666 
L 3525 4666 
L 3525 4397 
L 1831 0 
L 1172 0 
L 2766 4134 
L 525 4134 
L 525 4666 
z
" transform="scale(0.015625)"/>
       </defs>
       <use xlink:href="#DejaVuSans-33"/>
       <use xlink:href="#DejaVuSans-2e" transform="translate(63.623047 0)"/>
       <use xlink:href="#DejaVuSans-37" transform="translate(95.410156 0)"/>
       <use xlink:href="#DejaVuSans-30" transform="translate(159.033203 0)"/>
      </g>
     </g>
    </g>
    <g id="xtick_4">
     <g id="text_4">
      <!-- 4.85 -->
      <g style="fill: #262626" transform="translate(364.804815 327.638281) scale(0.11 -0.11)">
       <defs>
        <path id="DejaVuSans-38" d="M 2034 2216 
Q 1584 2216 1326 1975 
Q 1069 1734 1069 1313 
Q 1069 891 1326 650 
Q 1584 409 2034 409 
Q 2484 409 2743 651 
Q 3003 894 3003 1313 
Q 3003 1734 2745 1975 
Q 2488 2216 2034 2216 
z
M 1403 2484 
Q 997 2584 770 2862 
Q 544 3141 544 3541 
Q 544 4100 942 4425 
Q 1341 4750 2034 4750 
Q 2731 4750 3128 4425 
Q 3525 4100 3525 3541 
Q 3525 3141 3298 2862 
Q 3072 2584 2669 2484 
Q 3125 2378 3379 2068 
Q 3634 1759 3634 1313 
Q 3634 634 3220 271 
Q 2806 -91 2034 -91 
Q 1263 -91 848 271 
Q 434 634 434 1313 
Q 434 1759 690 2068 
Q 947 2378 1403 2484 
z
M 1172 3481 
Q 1172 3119 1398 2916 
Q 1625 2713 2034 2713 
Q 2441 2713 2670 2916 
Q 2900 3119 2900 3481 
Q 2900 3844 2670 4047 
Q 2441 4250 2034 4250 
Q 1625 4250 1398 4047 
Q 1172 3844 1172 3481 
z
" transform="scale(0.015625)"/>
       </defs>
       <use xlink:href="#DejaVuSans-34"/>
       <use xlink:href="#DejaVuSans-2e" transform="translate(63.623047 0)"/>
       <use xlink:href="#DejaVuSans-38" transform="translate(95.410156 0)"/>
       <use xlink:href="#DejaVuSans-35" transform="translate(159.033203 0)"/>
      </g>
     </g>
    </g>
    <g id="xtick_5">
     <g id="text_5">
      <!-- 6.00 -->
      <g style="fill: #262626" transform="translate(459.795724 327.638281) scale(0.11 -0.11)">
       <defs>
        <path id="DejaVuSans-36" d="M 2113 2584 
Q 1688 2584 1439 2293 
Q 1191 2003 1191 1497 
Q 1191 994 1439 701 
Q 1688 409 2113 409 
Q 2538 409 2786 701 
Q 3034 994 3034 1497 
Q 3034 2003 2786 2293 
Q 2538 2584 2113 2584 
z
M 3366 4563 
L 3366 3988 
Q 3128 4100 2886 4159 
Q 2644 4219 2406 4219 
Q 1781 4219 1451 3797 
Q 1122 3375 1075 2522 
Q 1259 2794 1537 2939 
Q 1816 3084 2150 3084 
Q 2853 3084 3261 2657 
Q 3669 2231 3669 1497 
Q 3669 778 3244 343 
Q 2819 -91 2113 -91 
Q 1303 -91 875 529 
Q 447 1150 447 2328 
Q 447 3434 972 4092 
Q 1497 4750 2381 4750 
Q 2619 4750 2861 4703 
Q 3103 4656 3366 4563 
z
" transform="scale(0.015625)"/>
       </defs>
       <use xlink:href="#DejaVuSans-36"/>
       <use xlink:href="#DejaVuSans-2e" transform="translate(63.623047 0)"/>
       <use xlink:href="#DejaVuSans-30" transform="translate(95.410156 0)"/>
       <use xlink:href="#DejaVuSans-30" transform="translate(159.033203 0)"/>
      </g>
     </g>
    </g>
    <g id="text_6">
     <!-- Familiarity -->
     <g style="fill: #262626" transform="translate(250.920938 343.044062) scale(0.12 -0.12)">
      <defs>
       <path id="DejaVuSans-46" d="M 628 4666 
L 3309 4666 
L 3309 4134 
L 1259 4134 
L 1259 2759 
L 3109 2759 
L 3109 2228 
L 1259 2228 
L 1259 0 
L 628 0 
L 628 4666 
z
" transform="scale(0.015625)"/>
       <path id="DejaVuSans-61" d="M 2194 1759 
Q 1497 1759 1228 1600 
Q 959 1441 959 1056 
Q 959 750 1161 570 
Q 1363 391 1709 391 
Q 2188 391 2477 730 
Q 2766 1069 2766 1631 
L 2766 1759 
L 2194 1759 
z
M 3341 1997 
L 3341 0 
L 2766 0 
L 2766 531 
Q 2569 213 2275 61 
Q 1981 -91 1556 -91 
Q 1019 -91 701 211 
Q 384 513 384 1019 
Q 384 1609 779 1909 
Q 1175 2209 1959 2209 
L 2766 2209 
L 2766 2266 
Q 2766 2663 2505 2880 
Q 2244 3097 1772 3097 
Q 1472 3097 1187 3025 
Q 903 2953 641 2809 
L 641 3341 
Q 956 3463 1253 3523 
Q 1550 3584 1831 3584 
Q 2591 3584 2966 3190 
Q 3341 2797 3341 1997 
z
" transform="scale(0.015625)"/>
       <path id="DejaVuSans-6d" d="M 3328 2828 
Q 3544 3216 3844 3400 
Q 4144 3584 4550 3584 
Q 5097 3584 5394 3201 
Q 5691 2819 5691 2113 
L 5691 0 
L 5113 0 
L 5113 2094 
Q 5113 2597 4934 2840 
Q 4756 3084 4391 3084 
Q 3944 3084 3684 2787 
Q 3425 2491 3425 1978 
L 3425 0 
L 2847 0 
L 2847 2094 
Q 2847 2600 2669 2842 
Q 2491 3084 2119 3084 
Q 1678 3084 1418 2786 
Q 1159 2488 1159 1978 
L 1159 0 
L 581 0 
L 581 3500 
L 1159 3500 
L 1159 2956 
Q 1356 3278 1631 3431 
Q 1906 3584 2284 3584 
Q 2666 3584 2933 3390 
Q 3200 3197 3328 2828 
z
" transform="scale(0.015625)"/>
       <path id="DejaVuSans-69" d="M 603 3500 
L 1178 3500 
L 1178 0 
L 603 0 
L 603 3500 
z
M 603 4863 
L 1178 4863 
L 1178 4134 
L 603 4134 
L 603 4863 
z
" transform="scale(0.015625)"/>
       <path id="DejaVuSans-6c" d="M 603 4863 
L 1178 4863 
L 1178 0 
L 603 0 
L 603 4863 
z
" transform="scale(0.015625)"/>
       <path id="DejaVuSans-72" d="M 2631 2963 
Q 2534 3019 2420 3045 
Q 2306 3072 2169 3072 
Q 1681 3072 1420 2755 
Q 1159 2438 1159 1844 
L 1159 0 
L 581 0 
L 581 3500 
L 1159 3500 
L 1159 2956 
Q 1341 3275 1631 3429 
Q 1922 3584 2338 3584 
Q 2397 3584 2469 3576 
Q 2541 3569 2628 3553 
L 2631 2963 
z
" transform="scale(0.015625)"/>
       <path id="DejaVuSans-74" d="M 1172 4494 
L 1172 3500 
L 2356 3500 
L 2356 3053 
L 1172 3053 
L 1172 1153 
Q 1172 725 1289 603 
Q 1406 481 1766 481 
L 2356 481 
L 2356 0 
L 1766 0 
Q 1100 0 847 248 
Q 594 497 594 1153 
L 594 3053 
L 172 3053 
L 172 3500 
L 594 3500 
L 594 4494 
L 1172 4494 
z
" transform="scale(0.015625)"/>
       <path id="DejaVuSans-79" d="M 2059 -325 
Q 1816 -950 1584 -1140 
Q 1353 -1331 966 -1331 
L 506 -1331 
L 506 -850 
L 844 -850 
Q 1081 -850 1212 -737 
Q 1344 -625 1503 -206 
L 1606 56 
L 191 3500 
L 800 3500 
L 1894 763 
L 2988 3500 
L 3597 3500 
L 2059 -325 
z
" transform="scale(0.015625)"/>
      </defs>
      <use xlink:href="#DejaVuSans-46"/>
      <use xlink:href="#DejaVuSans-61" transform="translate(48.394531 0)"/>
      <use xlink:href="#DejaVuSans-6d" transform="translate(109.673828 0)"/>
      <use xlink:href="#DejaVuSans-69" transform="translate(207.085938 0)"/>
      <use xlink:href="#DejaVuSans-6c" transform="translate(234.869141 0)"/>
      <use xlink:href="#DejaVuSans-69" transform="translate(262.652344 0)"/>
      <use xlink:href="#DejaVuSans-61" transform="translate(290.435547 0)"/>
      <use xlink:href="#DejaVuSans-72" transform="translate(351.714844 0)"/>
      <use xlink:href="#DejaVuSans-69" transform="translate(392.828125 0)"/>
      <use xlink:href="#DejaVuSans-74" transform="translate(420.611328 0)"/>
      <use xlink:href="#DejaVuSans-79" transform="translate(459.820312 0)"/>
     </g>
    </g>
   </g>
   <g id="matplotlib.axis_2">
    <g id="ytick_1">
     <g id="text_7">
      <!-- −1.66 -->
      <g style="fill: #262626" transform="translate(29.870156 313.801395) scale(0.11 -0.11)">
       <defs>
        <path id="DejaVuSans-2212" d="M 678 2272 
L 4684 2272 
L 4684 1741 
L 678 1741 
L 678 2272 
z
" transform="scale(0.015625)"/>
       </defs>
       <use xlink:href="#DejaVuSans-2212"/>
       <use xlink:href="#DejaVuSans-31" transform="translate(83.789062 0)"/>
       <use xlink:href="#DejaVuSans-2e" transform="translate(147.412109 0)"/>
       <use xlink:href="#DejaVuSans-36" transform="translate(179.199219 0)"/>
       <use xlink:href="#DejaVuSans-36" transform="translate(242.822266 0)"/>
      </g>
     </g>
    </g>
    <g id="ytick_2">
     <g id="text_8">
      <!-- −0.73 -->
      <g style="fill: #262626" transform="translate(29.870156 245.339868) scale(0.11 -0.11)">
       <use xlink:href="#DejaVuSans-2212"/>
       <use xlink:href="#DejaVuSans-30" transform="translate(83.789062 0)"/>
       <use xlink:href="#DejaVuSans-2e" transform="translate(147.412109 0)"/>
       <use xlink:href="#DejaVuSans-37" transform="translate(179.199219 0)"/>
       <use xlink:href="#DejaVuSans-33" transform="translate(242.822266 0)"/>
      </g>
     </g>
    </g>
    <g id="ytick_3">
     <g id="text_9">
      <!-- 0.20 -->
      <g style="fill: #262626" transform="translate(39.087813 176.878341) scale(0.11 -0.11)">
       <use xlink:href="#DejaVuSans-30"/>
       <use xlink:href="#DejaVuSans-2e" transform="translate(63.623047 0)"/>
       <use xlink:href="#DejaVuSans-32" transform="translate(95.410156 0)"/>
       <use xlink:href="#DejaVuSans-30" transform="translate(159.033203 0)"/>
      </g>
     </g>
    </g>
    <g id="ytick_4">
     <g id="text_10">
      <!-- 1.14 -->
      <g style="fill: #262626" transform="translate(39.087813 107.680668) scale(0.11 -0.11)">
       <use xlink:href="#DejaVuSans-31"/>
       <use xlink:href="#DejaVuSans-2e" transform="translate(63.623047 0)"/>
       <use xlink:href="#DejaVuSans-31" transform="translate(95.410156 0)"/>
       <use xlink:href="#DejaVuSans-34" transform="translate(159.033203 0)"/>
      </g>
     </g>
    </g>
    <g id="ytick_5">
     <g id="text_11">
      <!-- 2.07 -->
      <g style="fill: #262626" transform="translate(39.087813 39.219141) scale(0.11 -0.11)">
       <use xlink:href="#DejaVuSans-32"/>
       <use xlink:href="#DejaVuSans-2e" transform="translate(63.623047 0)"/>
       <use xlink:href="#DejaVuSans-30" transform="translate(95.410156 0)"/>
       <use xlink:href="#DejaVuSans-37" transform="translate(159.033203 0)"/>
      </g>
     </g>
    </g>
    <g id="text_12">
     <!-- Δ Avg. Log Probability -->
     <g style="fill: #262626" transform="translate(23.374531 237.687187) rotate(-90) scale(0.12 -0.12)">
      <defs>
       <path id="DejaVuSans-394" d="M 2188 4044 
L 906 525 
L 3472 525 
L 2188 4044 
z
M 50 0 
L 1831 4666 
L 2547 4666 
L 4325 0 
L 50 0 
z
" transform="scale(0.015625)"/>
       <path id="DejaVuSans-20" transform="scale(0.015625)"/>
       <path id="DejaVuSans-41" d="M 2188 4044 
L 1331 1722 
L 3047 1722 
L 2188 4044 
z
M 1831 4666 
L 2547 4666 
L 4325 0 
L 3669 0 
L 3244 1197 
L 1141 1197 
L 716 0 
L 50 0 
L 1831 4666 
z
" transform="scale(0.015625)"/>
       <path id="DejaVuSans-76" d="M 191 3500 
L 800 3500 
L 1894 563 
L 2988 3500 
L 3597 3500 
L 2284 0 
L 1503 0 
L 191 3500 
z
" transform="scale(0.015625)"/>
       <path id="DejaVuSans-67" d="M 2906 1791 
Q 2906 2416 2648 2759 
Q 2391 3103 1925 3103 
Q 1463 3103 1205 2759 
Q 947 2416 947 1791 
Q 947 1169 1205 825 
Q 1463 481 1925 481 
Q 2391 481 2648 825 
Q 2906 1169 2906 1791 
z
M 3481 434 
Q 3481 -459 3084 -895 
Q 2688 -1331 1869 -1331 
Q 1566 -1331 1297 -1286 
Q 1028 -1241 775 -1147 
L 775 -588 
Q 1028 -725 1275 -790 
Q 1522 -856 1778 -856 
Q 2344 -856 2625 -561 
Q 2906 -266 2906 331 
L 2906 616 
Q 2728 306 2450 153 
Q 2172 0 1784 0 
Q 1141 0 747 490 
Q 353 981 353 1791 
Q 353 2603 747 3093 
Q 1141 3584 1784 3584 
Q 2172 3584 2450 3431 
Q 2728 3278 2906 2969 
L 2906 3500 
L 3481 3500 
L 3481 434 
z
" transform="scale(0.015625)"/>
       <path id="DejaVuSans-4c" d="M 628 4666 
L 1259 4666 
L 1259 531 
L 3531 531 
L 3531 0 
L 628 0 
L 628 4666 
z
" transform="scale(0.015625)"/>
       <path id="DejaVuSans-6f" d="M 1959 3097 
Q 1497 3097 1228 2736 
Q 959 2375 959 1747 
Q 959 1119 1226 758 
Q 1494 397 1959 397 
Q 2419 397 2687 759 
Q 2956 1122 2956 1747 
Q 2956 2369 2687 2733 
Q 2419 3097 1959 3097 
z
M 1959 3584 
Q 2709 3584 3137 3096 
Q 3566 2609 3566 1747 
Q 3566 888 3137 398 
Q 2709 -91 1959 -91 
Q 1206 -91 779 398 
Q 353 888 353 1747 
Q 353 2609 779 3096 
Q 1206 3584 1959 3584 
z
" transform="scale(0.015625)"/>
       <path id="DejaVuSans-50" d="M 1259 4147 
L 1259 2394 
L 2053 2394 
Q 2494 2394 2734 2622 
Q 2975 2850 2975 3272 
Q 2975 3691 2734 3919 
Q 2494 4147 2053 4147 
L 1259 4147 
z
M 628 4666 
L 2053 4666 
Q 2838 4666 3239 4311 
Q 3641 3956 3641 3272 
Q 3641 2581 3239 2228 
Q 2838 1875 2053 1875 
L 1259 1875 
L 1259 0 
L 628 0 
L 628 4666 
z
" transform="scale(0.015625)"/>
       <path id="DejaVuSans-62" d="M 3116 1747 
Q 3116 2381 2855 2742 
Q 2594 3103 2138 3103 
Q 1681 3103 1420 2742 
Q 1159 2381 1159 1747 
Q 1159 1113 1420 752 
Q 1681 391 2138 391 
Q 2594 391 2855 752 
Q 3116 1113 3116 1747 
z
M 1159 2969 
Q 1341 3281 1617 3432 
Q 1894 3584 2278 3584 
Q 2916 3584 3314 3078 
Q 3713 2572 3713 1747 
Q 3713 922 3314 415 
Q 2916 -91 2278 -91 
Q 1894 -91 1617 61 
Q 1341 213 1159 525 
L 1159 0 
L 581 0 
L 581 4863 
L 1159 4863 
L 1159 2969 
z
" transform="scale(0.015625)"/>
      </defs>
      <use xlink:href="#DejaVuSans-394"/>
      <use xlink:href="#DejaVuSans-20" transform="translate(68.408203 0)"/>
      <use xlink:href="#DejaVuSans-41" transform="translate(100.195312 0)"/>
      <use xlink:href="#DejaVuSans-76" transform="translate(162.728516 0)"/>
      <use xlink:href="#DejaVuSans-67" transform="translate(221.908203 0)"/>
      <use xlink:href="#DejaVuSans-2e" transform="translate(285.384766 0)"/>
      <use xlink:href="#DejaVuSans-20" transform="translate(317.171875 0)"/>
      <use xlink:href="#DejaVuSans-4c" transform="translate(348.958984 0)"/>
      <use xlink:href="#DejaVuSans-6f" transform="translate(402.921875 0)"/>
      <use xlink:href="#DejaVuSans-67" transform="translate(464.103516 0)"/>
      <use xlink:href="#DejaVuSans-20" transform="translate(527.580078 0)"/>
      <use xlink:href="#DejaVuSans-50" transform="translate(559.367188 0)"/>
      <use xlink:href="#DejaVuSans-72" transform="translate(617.919922 0)"/>
      <use xlink:href="#DejaVuSans-6f" transform="translate(656.783203 0)"/>
      <use xlink:href="#DejaVuSans-62" transform="translate(717.964844 0)"/>
      <use xlink:href="#DejaVuSans-61" transform="translate(781.441406 0)"/>
      <use xlink:href="#DejaVuSans-62" transform="translate(842.720703 0)"/>
      <use xlink:href="#DejaVuSans-69" transform="translate(906.197266 0)"/>
      <use xlink:href="#DejaVuSans-6c" transform="translate(933.980469 0)"/>
      <use xlink:href="#DejaVuSans-69" transform="translate(961.763672 0)"/>
      <use xlink:href="#DejaVuSans-74" transform="translate(989.546875 0)"/>
      <use xlink:href="#DejaVuSans-79" transform="translate(1028.755859 0)"/>
     </g>
    </g>
   </g>
   <g id="PathCollection_1">
    <defs>
     <path id="mbc9cce0eeb" d="M 0 3.708099 
C 0.983399 3.708099 1.926654 3.317391 2.622022 2.622022 
C 3.317391 1.926654 3.708099 0.983399 3.708099 0 
C 3.708099 -0.983399 3.317391 -1.926654 2.622022 -2.622022 
C 1.926654 -3.317391 0.983399 -3.708099 0 -3.708099 
C -0.983399 -3.708099 -1.926654 -3.317391 -2.622022 -2.622022 
C -3.317391 -1.926654 -3.708099 -0.983399 -3.708099 0 
C -3.708099 0.983399 -3.317391 1.926654 -2.622022 2.622022 
C -1.926654 3.317391 -0.983399 3.708099 0 3.708099 
z
" style="stroke: #d62728; stroke-opacity: 0.75"/>
    </defs>
    <g clip-path="url(#p6a5e2879a0)">
     <use xlink:href="#mbc9cce0eeb" x="204.828261" y="212.099712" style="fill: #d62728; fill-opacity: 0.75; stroke: #d62728; stroke-opacity: 0.75"/>
     <use xlink:href="#mbc9cce0eeb" x="158.158814" y="217.072412" style="fill: #d62728; fill-opacity: 0.75; stroke: #d62728; stroke-opacity: 0.75"/>
     <use xlink:href="#mbc9cce0eeb" x="196.733383" y="223.079155" style="fill: #d62728; fill-opacity: 0.75; stroke: #d62728; stroke-opacity: 0.75"/>
     <use xlink:href="#mbc9cce0eeb" x="306.840237" y="158.589745" style="fill: #d62728; fill-opacity: 0.75; stroke: #d62728; stroke-opacity: 0.75"/>
     <use xlink:href="#mbc9cce0eeb" x="213.253542" y="213.877336" style="fill: #d62728; fill-opacity: 0.75; stroke: #d62728; stroke-opacity: 0.75"/>
     <use xlink:href="#mbc9cce0eeb" x="141.638656" y="248.321415" style="fill: #d62728; fill-opacity: 0.75; stroke: #d62728; stroke-opacity: 0.75"/>
     <use xlink:href="#mbc9cce0eeb" x="175.670182" y="246.905291" style="fill: #d62728; fill-opacity: 0.75; stroke: #d62728; stroke-opacity: 0.75"/>
     <use xlink:href="#mbc9cce0eeb" x="251.74551" y="209.550291" style="fill: #d62728; fill-opacity: 0.75; stroke: #d62728; stroke-opacity: 0.75"/>
     <use xlink:href="#mbc9cce0eeb" x="389.441028" y="176.993382" style="fill: #d62728; fill-opacity: 0.75; stroke: #d62728; stroke-opacity: 0.75"/>
     <use xlink:href="#mbc9cce0eeb" x="175.670182" y="249.863018" style="fill: #d62728; fill-opacity: 0.75; stroke: #d62728; stroke-opacity: 0.75"/>
     <use xlink:href="#mbc9cce0eeb" x="306.840237" y="227.552261" style="fill: #d62728; fill-opacity: 0.75; stroke: #d62728; stroke-opacity: 0.75"/>
     <use xlink:href="#mbc9cce0eeb" x="248.524079" y="212.398473" style="fill: #d62728; fill-opacity: 0.75; stroke: #d62728; stroke-opacity: 0.75"/>
     <use xlink:href="#mbc9cce0eeb" x="251.74551" y="212.369261" style="fill: #d62728; fill-opacity: 0.75; stroke: #d62728; stroke-opacity: 0.75"/>
     <use xlink:href="#mbc9cce0eeb" x="175.670182" y="240.076958" style="fill: #d62728; fill-opacity: 0.75; stroke: #d62728; stroke-opacity: 0.75"/>
     <use xlink:href="#mbc9cce0eeb" x="367.386617" y="221.289912" style="fill: #d62728; fill-opacity: 0.75; stroke: #d62728; stroke-opacity: 0.75"/>
     <use xlink:href="#mbc9cce0eeb" x="191.033929" y="215.794382" style="fill: #d62728; fill-opacity: 0.75; stroke: #d62728; stroke-opacity: 0.75"/>
     <use xlink:href="#mbc9cce0eeb" x="323.360395" y="225.543927" style="fill: #d62728; fill-opacity: 0.75; stroke: #d62728; stroke-opacity: 0.75"/>
     <use xlink:href="#mbc9cce0eeb" x="301.305984" y="201.327079" style="fill: #d62728; fill-opacity: 0.75; stroke: #d62728; stroke-opacity: 0.75"/>
     <use xlink:href="#mbc9cce0eeb" x="328.894648" y="218.313927" style="fill: #d62728; fill-opacity: 0.75; stroke: #d62728; stroke-opacity: 0.75"/>
     <use xlink:href="#mbc9cce0eeb" x="185.664877" y="238.689382" style="fill: #d62728; fill-opacity: 0.75; stroke: #d62728; stroke-opacity: 0.75"/>
     <use xlink:href="#mbc9cce0eeb" x="235.225352" y="219.628473" style="fill: #d62728; fill-opacity: 0.75; stroke: #d62728; stroke-opacity: 0.75"/>
     <use xlink:href="#mbc9cce0eeb" x="350.866458" y="190.898352" style="fill: #d62728; fill-opacity: 0.75; stroke: #d62728; stroke-opacity: 0.75"/>
     <use xlink:href="#mbc9cce0eeb" x="472.041818" y="205.387564" style="fill: #d62728; fill-opacity: 0.75; stroke: #d62728; stroke-opacity: 0.75"/>
     <use xlink:href="#mbc9cce0eeb" x="380.520142" y="216.999382" style="fill: #d62728; fill-opacity: 0.75; stroke: #d62728; stroke-opacity: 0.75"/>
     <use xlink:href="#mbc9cce0eeb" x="293.376308" y="218.313927" style="fill: #d62728; fill-opacity: 0.75; stroke: #d62728; stroke-opacity: 0.75"/>
     <use xlink:href="#mbc9cce0eeb" x="224.239447" y="184.464382" style="fill: #d62728; fill-opacity: 0.75; stroke: #d62728; stroke-opacity: 0.75"/>
     <use xlink:href="#mbc9cce0eeb" x="400.426933" y="205.697942" style="fill: #d62728; fill-opacity: 0.75; stroke: #d62728; stroke-opacity: 0.75"/>
     <use xlink:href="#mbc9cce0eeb" x="257.279763" y="173.10817" style="fill: #d62728; fill-opacity: 0.75; stroke: #d62728; stroke-opacity: 0.75"/>
     <use xlink:href="#mbc9cce0eeb" x="433.467249" y="201.122594" style="fill: #d62728; fill-opacity: 0.75; stroke: #d62728; stroke-opacity: 0.75"/>
     <use xlink:href="#mbc9cce0eeb" x="356.400711" y="216.013473" style="fill: #d62728; fill-opacity: 0.75; stroke: #d62728; stroke-opacity: 0.75"/>
     <use xlink:href="#mbc9cce0eeb" x="141.638656" y="193.556655" style="fill: #d62728; fill-opacity: 0.75; stroke: #d62728; stroke-opacity: 0.75"/>
     <use xlink:href="#mbc9cce0eeb" x="207.719289" y="206.84817" style="fill: #d62728; fill-opacity: 0.75; stroke: #d62728; stroke-opacity: 0.75"/>
     <use xlink:href="#mbc9cce0eeb" x="229.7737" y="201.736048" style="fill: #d62728; fill-opacity: 0.75; stroke: #d62728; stroke-opacity: 0.75"/>
     <use xlink:href="#mbc9cce0eeb" x="282.555605" y="220.71596" style="fill: #d62728; fill-opacity: 0.75; stroke: #d62728; stroke-opacity: 0.75"/>
     <use xlink:href="#mbc9cce0eeb" x="355.409502" y="213.493927" style="fill: #d62728; fill-opacity: 0.75; stroke: #d62728; stroke-opacity: 0.75"/>
     <use xlink:href="#mbc9cce0eeb" x="224.239447" y="242.633018" style="fill: #d62728; fill-opacity: 0.75; stroke: #d62728; stroke-opacity: 0.75"/>
     <use xlink:href="#mbc9cce0eeb" x="207.719289" y="198.157564" style="fill: #d62728; fill-opacity: 0.75; stroke: #d62728; stroke-opacity: 0.75"/>
     <use xlink:href="#mbc9cce0eeb" x="284.785826" y="241.099382" style="fill: #d62728; fill-opacity: 0.75; stroke: #d62728; stroke-opacity: 0.75"/>
     <use xlink:href="#mbc9cce0eeb" x="350.866458" y="212.069836" style="fill: #d62728; fill-opacity: 0.75; stroke: #d62728; stroke-opacity: 0.75"/>
     <use xlink:href="#mbc9cce0eeb" x="389.441028" y="173.619382" style="fill: #d62728; fill-opacity: 0.75; stroke: #d62728; stroke-opacity: 0.75"/>
     <use xlink:href="#mbc9cce0eeb" x="257.279763" y="221.162109" style="fill: #d62728; fill-opacity: 0.75; stroke: #d62728; stroke-opacity: 0.75"/>
     <use xlink:href="#mbc9cce0eeb" x="279.334174" y="210.262336" style="fill: #d62728; fill-opacity: 0.75; stroke: #d62728; stroke-opacity: 0.75"/>
     <use xlink:href="#mbc9cce0eeb" x="400.426933" y="227.351427" style="fill: #d62728; fill-opacity: 0.75; stroke: #d62728; stroke-opacity: 0.75"/>
     <use xlink:href="#mbc9cce0eeb" x="147.172909" y="203.780897" style="fill: #d62728; fill-opacity: 0.75; stroke: #d62728; stroke-opacity: 0.75"/>
     <use xlink:href="#mbc9cce0eeb" x="195.081368" y="204.989217" style="fill: #d62728; fill-opacity: 0.75; stroke: #d62728; stroke-opacity: 0.75"/>
     <use xlink:href="#mbc9cce0eeb" x="240.759605" y="194.783564" style="fill: #d62728; fill-opacity: 0.75; stroke: #d62728; stroke-opacity: 0.75"/>
     <use xlink:href="#mbc9cce0eeb" x="439.001502" y="199.895685" style="fill: #d62728; fill-opacity: 0.75; stroke: #d62728; stroke-opacity: 0.75"/>
     <use xlink:href="#mbc9cce0eeb" x="114.132593" y="233.942412" style="fill: #d62728; fill-opacity: 0.75; stroke: #d62728; stroke-opacity: 0.75"/>
     <use xlink:href="#mbc9cce0eeb" x="191.19913" y="230.637791" style="fill: #d62728; fill-opacity: 0.75; stroke: #d62728; stroke-opacity: 0.75"/>
     <use xlink:href="#mbc9cce0eeb" x="258.270972" y="223.900745" style="fill: #d62728; fill-opacity: 0.75; stroke: #d62728; stroke-opacity: 0.75"/>
     <use xlink:href="#mbc9cce0eeb" x="345.414806" y="228.0087" style="fill: #d62728; fill-opacity: 0.75; stroke: #d62728; stroke-opacity: 0.75"/>
     <use xlink:href="#mbc9cce0eeb" x="334.3463" y="250.958473" style="fill: #d62728; fill-opacity: 0.75; stroke: #d62728; stroke-opacity: 0.75"/>
     <use xlink:href="#mbc9cce0eeb" x="316.58713" y="249.789988" style="fill: #d62728; fill-opacity: 0.75; stroke: #d62728; stroke-opacity: 0.75"/>
     <use xlink:href="#mbc9cce0eeb" x="214.492553" y="284.260291" style="fill: #d62728; fill-opacity: 0.75; stroke: #d62728; stroke-opacity: 0.75"/>
     <use xlink:href="#mbc9cce0eeb" x="345.414806" y="206.160357" style="fill: #d62728; fill-opacity: 0.75; stroke: #d62728; stroke-opacity: 0.75"/>
     <use xlink:href="#mbc9cce0eeb" x="273.799921" y="244.604836" style="fill: #d62728; fill-opacity: 0.75; stroke: #d62728; stroke-opacity: 0.75"/>
     <use xlink:href="#mbc9cce0eeb" x="196.733383" y="213.384382" style="fill: #d62728; fill-opacity: 0.75; stroke: #d62728; stroke-opacity: 0.75"/>
     <use xlink:href="#mbc9cce0eeb" x="312.37449" y="243.399836" style="fill: #d62728; fill-opacity: 0.75; stroke: #d62728; stroke-opacity: 0.75"/>
     <use xlink:href="#mbc9cce0eeb" x="262.814016" y="203.371927" style="fill: #d62728; fill-opacity: 0.75; stroke: #d62728; stroke-opacity: 0.75"/>
     <use xlink:href="#mbc9cce0eeb" x="186.325684" y="168.3612" style="fill: #d62728; fill-opacity: 0.75; stroke: #d62728; stroke-opacity: 0.75"/>
     <use xlink:href="#mbc9cce0eeb" x="240.759605" y="244.2762" style="fill: #d62728; fill-opacity: 0.75; stroke: #d62728; stroke-opacity: 0.75"/>
     <use xlink:href="#mbc9cce0eeb" x="202.185036" y="233.765812" style="fill: #d62728; fill-opacity: 0.75; stroke: #d62728; stroke-opacity: 0.75"/>
     <use xlink:href="#mbc9cce0eeb" x="175.670182" y="250.958473" style="fill: #d62728; fill-opacity: 0.75; stroke: #d62728; stroke-opacity: 0.75"/>
     <use xlink:href="#mbc9cce0eeb" x="378.455123" y="208.454836" style="fill: #d62728; fill-opacity: 0.75; stroke: #d62728; stroke-opacity: 0.75"/>
     <use xlink:href="#mbc9cce0eeb" x="262.814016" y="223.407791" style="fill: #d62728; fill-opacity: 0.75; stroke: #d62728; stroke-opacity: 0.75"/>
     <use xlink:href="#mbc9cce0eeb" x="328.894648" y="234.417109" style="fill: #d62728; fill-opacity: 0.75; stroke: #d62728; stroke-opacity: 0.75"/>
     <use xlink:href="#mbc9cce0eeb" x="312.37449" y="247.453018" style="fill: #d62728; fill-opacity: 0.75; stroke: #d62728; stroke-opacity: 0.75"/>
     <use xlink:href="#mbc9cce0eeb" x="240.759605" y="203.780897" style="fill: #d62728; fill-opacity: 0.75; stroke: #d62728; stroke-opacity: 0.75"/>
     <use xlink:href="#mbc9cce0eeb" x="389.441028" y="212.398473" style="fill: #d62728; fill-opacity: 0.75; stroke: #d62728; stroke-opacity: 0.75"/>
     <use xlink:href="#mbc9cce0eeb" x="306.840237" y="219.190291" style="fill: #d62728; fill-opacity: 0.75; stroke: #d62728; stroke-opacity: 0.75"/>
     <use xlink:href="#mbc9cce0eeb" x="161.049842" y="200.585821" style="fill: #d62728; fill-opacity: 0.75; stroke: #d62728; stroke-opacity: 0.75"/>
     <use xlink:href="#mbc9cce0eeb" x="295.854332" y="245.262109" style="fill: #d62728; fill-opacity: 0.75; stroke: #d62728; stroke-opacity: 0.75"/>
     <use xlink:href="#mbc9cce0eeb" x="312.37449" y="196.214958" style="fill: #d62728; fill-opacity: 0.75; stroke: #d62728; stroke-opacity: 0.75"/>
     <use xlink:href="#mbc9cce0eeb" x="400.426933" y="167.178109" style="fill: #d62728; fill-opacity: 0.75; stroke: #d62728; stroke-opacity: 0.75"/>
     <use xlink:href="#mbc9cce0eeb" x="301.305984" y="221.600291" style="fill: #d62728; fill-opacity: 0.75; stroke: #d62728; stroke-opacity: 0.75"/>
     <use xlink:href="#mbc9cce0eeb" x="345.414806" y="262.022564" style="fill: #d62728; fill-opacity: 0.75; stroke: #d62728; stroke-opacity: 0.75"/>
     <use xlink:href="#mbc9cce0eeb" x="416.947091" y="184.464382" style="fill: #d62728; fill-opacity: 0.75; stroke: #d62728; stroke-opacity: 0.75"/>
     <use xlink:href="#mbc9cce0eeb" x="321.377976" y="220.943018" style="fill: #d62728; fill-opacity: 0.75; stroke: #d62728; stroke-opacity: 0.75"/>
     <use xlink:href="#mbc9cce0eeb" x="92.078182" y="211.551321" style="fill: #d62728; fill-opacity: 0.75; stroke: #d62728; stroke-opacity: 0.75"/>
     <use xlink:href="#mbc9cce0eeb" x="262.814016" y="264.487336" style="fill: #d62728; fill-opacity: 0.75; stroke: #d62728; stroke-opacity: 0.75"/>
     <use xlink:href="#mbc9cce0eeb" x="257.279763" y="223.079155" style="fill: #d62728; fill-opacity: 0.75; stroke: #d62728; stroke-opacity: 0.75"/>
     <use xlink:href="#mbc9cce0eeb" x="204.828261" y="204.839836" style="fill: #d62728; fill-opacity: 0.75; stroke: #d62728; stroke-opacity: 0.75"/>
     <use xlink:href="#mbc9cce0eeb" x="416.947091" y="200.202412" style="fill: #d62728; fill-opacity: 0.75; stroke: #d62728; stroke-opacity: 0.75"/>
    </g>
   </g>
   <g id="FillBetweenPolyCollection_1">
    <defs>
     <path id="m1cec4d4849" d="M 92.078182 -143.074206 
L 92.078182 -120.934151 
L 95.916198 -121.345564 
L 99.754215 -121.74566 
L 103.592231 -122.145757 
L 107.430248 -122.522224 
L 111.268264 -122.899562 
L 115.106281 -123.279168 
L 118.944298 -123.622213 
L 122.782314 -123.965257 
L 126.620331 -124.318295 
L 130.458347 -124.672492 
L 134.296364 -125.056416 
L 138.13438 -125.41583 
L 141.972397 -125.758149 
L 145.810413 -126.100468 
L 149.64843 -126.450591 
L 153.486446 -126.865854 
L 157.324463 -127.282834 
L 161.162479 -127.713507 
L 165.000496 -128.196444 
L 168.838512 -128.683028 
L 172.676529 -129.050292 
L 176.514545 -129.492757 
L 180.352562 -129.779868 
L 184.190579 -130.19205 
L 188.028595 -130.472646 
L 191.866612 -130.714764 
L 195.704628 -131.053066 
L 199.542645 -131.441525 
L 203.380661 -131.781647 
L 207.218678 -132.104651 
L 211.056694 -132.496576 
L 214.894711 -132.824574 
L 218.732727 -133.152571 
L 222.570744 -133.480569 
L 226.40876 -133.79703 
L 230.246777 -134.139622 
L 234.084793 -134.525337 
L 237.92281 -134.861156 
L 241.760826 -135.147737 
L 245.598843 -135.473108 
L 249.43686 -135.871361 
L 253.274876 -136.096874 
L 257.112893 -136.370033 
L 260.950909 -136.583186 
L 264.788926 -136.869261 
L 268.626942 -137.157069 
L 272.464959 -137.451402 
L 276.302975 -137.740201 
L 280.140992 -138.047609 
L 283.979008 -138.291602 
L 287.817025 -138.476739 
L 291.655041 -138.641974 
L 295.493058 -138.779708 
L 299.331074 -139.003672 
L 303.169091 -139.211776 
L 307.007107 -139.337474 
L 310.845124 -139.482033 
L 314.68314 -139.664689 
L 318.521157 -139.817572 
L 322.359174 -139.963592 
L 326.19719 -140.089956 
L 330.035207 -140.221173 
L 333.873223 -140.348943 
L 337.71124 -140.419337 
L 341.549256 -140.529989 
L 345.387273 -140.676159 
L 349.225289 -140.726121 
L 353.063306 -140.833743 
L 356.901322 -140.958301 
L 360.739339 -141.063085 
L 364.577355 -141.139356 
L 368.415372 -141.254333 
L 372.253388 -141.366972 
L 376.091405 -141.55124 
L 379.929421 -141.671171 
L 383.767438 -141.681368 
L 387.605455 -141.78498 
L 391.443471 -141.888591 
L 395.281488 -141.992203 
L 399.119504 -142.017944 
L 402.957521 -142.009228 
L 406.795537 -142.003814 
L 410.633554 -141.998154 
L 414.47157 -141.987958 
L 418.309587 -142.010248 
L 422.147603 -142.01309 
L 425.98562 -142.006783 
L 429.823636 -142.000476 
L 433.661653 -141.99417 
L 437.499669 -141.987863 
L 441.337686 -142.05076 
L 445.175702 -142.169893 
L 449.013719 -142.218186 
L 452.851736 -142.132208 
L 456.689752 -142.136067 
L 460.527769 -142.175755 
L 464.365785 -142.21745 
L 468.203802 -142.259214 
L 472.041818 -142.300979 
L 472.041818 -164.547036 
L 472.041818 -164.547036 
L 468.203802 -164.161491 
L 464.365785 -163.775946 
L 460.527769 -163.36238 
L 456.689752 -162.948556 
L 452.851736 -162.53458 
L 449.013719 -162.112378 
L 445.175702 -161.703916 
L 441.337686 -161.351739 
L 437.499669 -160.980267 
L 433.661653 -160.547931 
L 429.823636 -160.143376 
L 425.98562 -159.790624 
L 422.147603 -159.47184 
L 418.309587 -159.114943 
L 414.47157 -158.74159 
L 410.633554 -158.368236 
L 406.795537 -157.994883 
L 402.957521 -157.6102 
L 399.119504 -157.249102 
L 395.281488 -156.875561 
L 391.443471 -156.50259 
L 387.605455 -156.130832 
L 383.767438 -155.75755 
L 379.929421 -155.385496 
L 376.091405 -155.027626 
L 372.253388 -154.709763 
L 368.415372 -154.323877 
L 364.577355 -154.075879 
L 360.739339 -153.681237 
L 356.901322 -153.338196 
L 353.063306 -153.082354 
L 349.225289 -152.790985 
L 345.387273 -152.491766 
L 341.549256 -152.215839 
L 337.71124 -152.003178 
L 333.873223 -151.658906 
L 330.035207 -151.443089 
L 326.19719 -151.229066 
L 322.359174 -150.923452 
L 318.521157 -150.676752 
L 314.68314 -150.380833 
L 310.845124 -150.143283 
L 307.007107 -149.864065 
L 303.169091 -149.661617 
L 299.331074 -149.438924 
L 295.493058 -149.204232 
L 291.655041 -148.902515 
L 287.817025 -148.609091 
L 283.979008 -148.35931 
L 280.140992 -148.062817 
L 276.302975 -147.76615 
L 272.464959 -147.53807 
L 268.626942 -147.334041 
L 264.788926 -147.157054 
L 260.950909 -146.977371 
L 257.112893 -146.745227 
L 253.274876 -146.62179 
L 249.43686 -146.386773 
L 245.598843 -146.302933 
L 241.760826 -146.263557 
L 237.92281 -146.223649 
L 234.084793 -146.077965 
L 230.246777 -145.863058 
L 226.40876 -145.670001 
L 222.570744 -145.555797 
L 218.732727 -145.433274 
L 214.894711 -145.232267 
L 211.056694 -145.190965 
L 207.218678 -145.007672 
L 203.380661 -144.820746 
L 199.542645 -144.637049 
L 195.704628 -144.456253 
L 191.866612 -144.316176 
L 188.028595 -144.250861 
L 184.190579 -144.098781 
L 180.352562 -144.021393 
L 176.514545 -143.993984 
L 172.676529 -143.9732 
L 168.838512 -143.937594 
L 165.000496 -143.908978 
L 161.162479 -143.816524 
L 157.324463 -143.779966 
L 153.486446 -143.748219 
L 149.64843 -143.717298 
L 145.810413 -143.684126 
L 141.972397 -143.585666 
L 138.13438 -143.620151 
L 134.296364 -143.560407 
L 130.458347 -143.489494 
L 126.620331 -143.44168 
L 122.782314 -143.368461 
L 118.944298 -143.331853 
L 115.106281 -143.295246 
L 111.268264 -143.258639 
L 107.430248 -143.222032 
L 103.592231 -143.185425 
L 99.754215 -143.148817 
L 95.916198 -143.11221 
L 92.078182 -143.074206 
z
" style="stroke: #ffffff; stroke-opacity: 0.15"/>
    </defs>
    <g clip-path="url(#p6a5e2879a0)">
     <use xlink:href="#m1cec4d4849" x="0" y="360" style="fill: #d62728; fill-opacity: 0.15; stroke: #ffffff; stroke-opacity: 0.15"/>
    </g>
   </g>
   <g id="line2d_1">
    <path d="M 92.078182 228.222274 
L 95.916198 227.992603 
L 99.754215 227.762933 
L 103.592231 227.533263 
L 107.430248 227.303592 
L 111.268264 227.073922 
L 115.106281 226.844252 
L 118.944298 226.614581 
L 122.782314 226.384911 
L 126.620331 226.155241 
L 130.458347 225.92557 
L 134.296364 225.6959 
L 138.13438 225.466229 
L 141.972397 225.236559 
L 145.810413 225.006889 
L 149.64843 224.777218 
L 153.486446 224.547548 
L 157.324463 224.317878 
L 161.162479 224.088207 
L 165.000496 223.858537 
L 168.838512 223.628866 
L 172.676529 223.399196 
L 176.514545 223.169526 
L 180.352562 222.939855 
L 184.190579 222.710185 
L 188.028595 222.480515 
L 191.866612 222.250844 
L 195.704628 222.021174 
L 199.542645 221.791503 
L 203.380661 221.561833 
L 207.218678 221.332163 
L 211.056694 221.102492 
L 214.894711 220.872822 
L 218.732727 220.643152 
L 222.570744 220.413481 
L 226.40876 220.183811 
L 230.246777 219.95414 
L 234.084793 219.72447 
L 237.92281 219.4948 
L 241.760826 219.265129 
L 245.598843 219.035459 
L 249.43686 218.805789 
L 253.274876 218.576118 
L 257.112893 218.346448 
L 260.950909 218.116778 
L 264.788926 217.887107 
L 268.626942 217.657437 
L 272.464959 217.427766 
L 276.302975 217.198096 
L 280.140992 216.968426 
L 283.979008 216.738755 
L 287.817025 216.509085 
L 291.655041 216.279415 
L 295.493058 216.049744 
L 299.331074 215.820074 
L 303.169091 215.590403 
L 307.007107 215.360733 
L 310.845124 215.131063 
L 314.68314 214.901392 
L 318.521157 214.671722 
L 322.359174 214.442052 
L 326.19719 214.212381 
L 330.035207 213.982711 
L 333.873223 213.75304 
L 337.71124 213.52337 
L 341.549256 213.2937 
L 345.387273 213.064029 
L 349.225289 212.834359 
L 353.063306 212.604689 
L 356.901322 212.375018 
L 360.739339 212.145348 
L 364.577355 211.915677 
L 368.415372 211.686007 
L 372.253388 211.456337 
L 376.091405 211.226666 
L 379.929421 210.996996 
L 383.767438 210.767326 
L 387.605455 210.537655 
L 391.443471 210.307985 
L 395.281488 210.078314 
L 399.119504 209.848644 
L 402.957521 209.618974 
L 406.795537 209.389303 
L 410.633554 209.159633 
L 414.47157 208.929963 
L 418.309587 208.700292 
L 422.147603 208.470622 
L 425.98562 208.240952 
L 429.823636 208.011281 
L 433.661653 207.781611 
L 437.499669 207.55194 
L 441.337686 207.32227 
L 445.175702 207.0926 
L 449.013719 206.862929 
L 452.851736 206.633259 
L 456.689752 206.403589 
L 460.527769 206.173918 
L 464.365785 205.944248 
L 468.203802 205.714577 
L 472.041818 205.484907 
" clip-path="url(#p6a5e2879a0)" style="fill: none; stroke: #d62728; stroke-width: 2.5; stroke-linecap: round"/>
   </g>
   <g id="line2d_2">
    <path d="M 73.08 187.422109 
L 491.04 187.422109 
" clip-path="url(#p6a5e2879a0)" style="fill: none; stroke-dasharray: 4.44,1.92; stroke-dashoffset: 0; stroke: #444444; stroke-opacity: 0.7; stroke-width: 1.2"/>
   </g>
   <g id="patch_3">
    <path d="M 73.08 309.78 
L 73.08 35.04 
" style="fill: none; stroke: #262626; stroke-width: 1.25; stroke-linejoin: miter; stroke-linecap: square"/>
   </g>
   <g id="patch_4">
    <path d="M 73.08 309.78 
L 491.04 309.78 
" style="fill: none; stroke: #262626; stroke-width: 1.25; stroke-linejoin: miter; stroke-linecap: square"/>
   </g>
   <g id="text_13">
    <!-- Metaphor preferred -->
    <g style="fill: #d62728" transform="translate(92.078182 176.508676) scale(0.1 -0.1)">
     <defs>
      <path id="DejaVuSans-4d" d="M 628 4666 
L 1569 4666 
L 2759 1491 
L 3956 4666 
L 4897 4666 
L 4897 0 
L 4281 0 
L 4281 4097 
L 3078 897 
L 2444 897 
L 1241 4097 
L 1241 0 
L 628 0 
L 628 4666 
z
" transform="scale(0.015625)"/>
      <path id="DejaVuSans-65" d="M 3597 1894 
L 3597 1613 
L 953 1613 
Q 991 1019 1311 708 
Q 1631 397 2203 397 
Q 2534 397 2845 478 
Q 3156 559 3463 722 
L 3463 178 
Q 3153 47 2828 -22 
Q 2503 -91 2169 -91 
Q 1331 -91 842 396 
Q 353 884 353 1716 
Q 353 2575 817 3079 
Q 1281 3584 2069 3584 
Q 2775 3584 3186 3129 
Q 3597 2675 3597 1894 
z
M 3022 2063 
Q 3016 2534 2758 2815 
Q 2500 3097 2075 3097 
Q 1594 3097 1305 2825 
Q 1016 2553 972 2059 
L 3022 2063 
z
" transform="scale(0.015625)"/>
      <path id="DejaVuSans-70" d="M 1159 525 
L 1159 -1331 
L 581 -1331 
L 581 3500 
L 1159 3500 
L 1159 2969 
Q 1341 3281 1617 3432 
Q 1894 3584 2278 3584 
Q 2916 3584 3314 3078 
Q 3713 2572 3713 1747 
Q 3713 922 3314 415 
Q 2916 -91 2278 -91 
Q 1894 -91 1617 61 
Q 1341 213 1159 525 
z
M 3116 1747 
Q 3116 2381 2855 2742 
Q 2594 3103 2138 3103 
Q 1681 3103 1420 2742 
Q 1159 2381 1159 1747 
Q 1159 1113 1420 752 
Q 1681 391 2138 391 
Q 2594 391 2855 752 
Q 3116 1113 3116 1747 
z
" transform="scale(0.015625)"/>
      <path id="DejaVuSans-68" d="M 3513 2113 
L 3513 0 
L 2938 0 
L 2938 2094 
Q 2938 2591 2744 2837 
Q 2550 3084 2163 3084 
Q 1697 3084 1428 2787 
Q 1159 2491 1159 1978 
L 1159 0 
L 581 0 
L 581 4863 
L 1159 4863 
L 1159 2956 
Q 1366 3272 1645 3428 
Q 1925 3584 2291 3584 
Q 2894 3584 3203 3211 
Q 3513 2838 3513 2113 
z
" transform="scale(0.015625)"/>
      <path id="DejaVuSans-66" d="M 2375 4863 
L 2375 4384 
L 1825 4384 
Q 1516 4384 1395 4259 
Q 1275 4134 1275 3809 
L 1275 3500 
L 2222 3500 
L 2222 3053 
L 1275 3053 
L 1275 0 
L 697 0 
L 697 3053 
L 147 3053 
L 147 3500 
L 697 3500 
L 697 3744 
Q 697 4328 969 4595 
Q 1241 4863 1831 4863 
L 2375 4863 
z
" transform="scale(0.015625)"/>
      <path id="DejaVuSans-64" d="M 2906 2969 
L 2906 4863 
L 3481 4863 
L 3481 0 
L 2906 0 
L 2906 525 
Q 2725 213 2448 61 
Q 2172 -91 1784 -91 
Q 1150 -91 751 415 
Q 353 922 353 1747 
Q 353 2572 751 3078 
Q 1150 3584 1784 3584 
Q 2172 3584 2448 3432 
Q 2725 3281 2906 2969 
z
M 947 1747 
Q 947 1113 1208 752 
Q 1469 391 1925 391 
Q 2381 391 2643 752 
Q 2906 1113 2906 1747 
Q 2906 2381 2643 2742 
Q 2381 3103 1925 3103 
Q 1469 3103 1208 2742 
Q 947 2381 947 1747 
z
" transform="scale(0.015625)"/>
     </defs>
     <use xlink:href="#DejaVuSans-4d"/>
     <use xlink:href="#DejaVuSans-65" transform="translate(86.279297 0)"/>
     <use xlink:href="#DejaVuSans-74" transform="translate(147.802734 0)"/>
     <use xlink:href="#DejaVuSans-61" transform="translate(187.011719 0)"/>
     <use xlink:href="#DejaVuSans-70" transform="translate(248.291016 0)"/>
     <use xlink:href="#DejaVuSans-68" transform="translate(311.767578 0)"/>
     <use xlink:href="#DejaVuSans-6f" transform="translate(375.146484 0)"/>
     <use xlink:href="#DejaVuSans-72" transform="translate(436.328125 0)"/>
     <use xlink:href="#DejaVuSans-20" transform="translate(477.441406 0)"/>
     <use xlink:href="#DejaVuSans-70" transform="translate(509.228516 0)"/>
     <use xlink:href="#DejaVuSans-72" transform="translate(572.705078 0)"/>
     <use xlink:href="#DejaVuSans-65" transform="translate(611.568359 0)"/>
     <use xlink:href="#DejaVuSans-66" transform="translate(673.091797 0)"/>
     <use xlink:href="#DejaVuSans-65" transform="translate(708.296875 0)"/>
     <use xlink:href="#DejaVuSans-72" transform="translate(769.820312 0)"/>
     <use xlink:href="#DejaVuSans-72" transform="translate(809.183594 0)"/>
     <use xlink:href="#DejaVuSans-65" transform="translate(848.046875 0)"/>
     <use xlink:href="#DejaVuSans-64" transform="translate(909.570312 0)"/>
    </g>
   </g>
   <g id="text_14">
    <!-- Simile preferred -->
    <g style="fill: #444444" transform="translate(92.078182 203.854292) scale(0.1 -0.1)">
     <defs>
      <path id="DejaVuSans-53" d="M 3425 4513 
L 3425 3897 
Q 3066 4069 2747 4153 
Q 2428 4238 2131 4238 
Q 1616 4238 1336 4038 
Q 1056 3838 1056 3469 
Q 1056 3159 1242 3001 
Q 1428 2844 1947 2747 
L 2328 2669 
Q 3034 2534 3370 2195 
Q 3706 1856 3706 1288 
Q 3706 609 3251 259 
Q 2797 -91 1919 -91 
Q 1588 -91 1214 -16 
Q 841 59 441 206 
L 441 856 
Q 825 641 1194 531 
Q 1563 422 1919 422 
Q 2459 422 2753 634 
Q 3047 847 3047 1241 
Q 3047 1584 2836 1778 
Q 2625 1972 2144 2069 
L 1759 2144 
Q 1053 2284 737 2584 
Q 422 2884 422 3419 
Q 422 4038 858 4394 
Q 1294 4750 2059 4750 
Q 2388 4750 2728 4690 
Q 3069 4631 3425 4513 
z
" transform="scale(0.015625)"/>
     </defs>
     <use xlink:href="#DejaVuSans-53"/>
     <use xlink:href="#DejaVuSans-69" transform="translate(63.476562 0)"/>
     <use xlink:href="#DejaVuSans-6d" transform="translate(91.259766 0)"/>
     <use xlink:href="#DejaVuSans-69" transform="translate(188.671875 0)"/>
     <use xlink:href="#DejaVuSans-6c" transform="translate(216.455078 0)"/>
     <use xlink:href="#DejaVuSans-65" transform="translate(244.238281 0)"/>
     <use xlink:href="#DejaVuSans-20" transform="translate(305.761719 0)"/>
     <use xlink:href="#DejaVuSans-70" transform="translate(337.548828 0)"/>
     <use xlink:href="#DejaVuSans-72" transform="translate(401.025391 0)"/>
     <use xlink:href="#DejaVuSans-65" transform="translate(439.888672 0)"/>
     <use xlink:href="#DejaVuSans-66" transform="translate(501.412109 0)"/>
     <use xlink:href="#DejaVuSans-65" transform="translate(536.617188 0)"/>
     <use xlink:href="#DejaVuSans-72" transform="translate(598.140625 0)"/>
     <use xlink:href="#DejaVuSans-72" transform="translate(637.503906 0)"/>
     <use xlink:href="#DejaVuSans-65" transform="translate(676.367188 0)"/>
     <use xlink:href="#DejaVuSans-64" transform="translate(737.890625 0)"/>
    </g>
   </g>
   <g id="text_15">
    <!-- Minerva 1B -->
    <g style="fill: #262626" transform="translate(243.935625 23.04) scale(0.12 -0.12)">
     <defs>
      <path id="DejaVuSans-Bold-4d" d="M 588 4666 
L 2119 4666 
L 3181 2169 
L 4250 4666 
L 5778 4666 
L 5778 0 
L 4641 0 
L 4641 3413 
L 3566 897 
L 2803 897 
L 1728 3413 
L 1728 0 
L 588 0 
L 588 4666 
z
" transform="scale(0.015625)"/>
      <path id="DejaVuSans-Bold-69" d="M 538 3500 
L 1656 3500 
L 1656 0 
L 538 0 
L 538 3500 
z
M 538 4863 
L 1656 4863 
L 1656 3950 
L 538 3950 
L 538 4863 
z
" transform="scale(0.015625)"/>
      <path id="DejaVuSans-Bold-6e" d="M 4056 2131 
L 4056 0 
L 2931 0 
L 2931 347 
L 2931 1631 
Q 2931 2084 2911 2256 
Q 2891 2428 2841 2509 
Q 2775 2619 2662 2680 
Q 2550 2741 2406 2741 
Q 2056 2741 1856 2470 
Q 1656 2200 1656 1722 
L 1656 0 
L 538 0 
L 538 3500 
L 1656 3500 
L 1656 2988 
Q 1909 3294 2193 3439 
Q 2478 3584 2822 3584 
Q 3428 3584 3742 3212 
Q 4056 2841 4056 2131 
z
" transform="scale(0.015625)"/>
      <path id="DejaVuSans-Bold-65" d="M 4031 1759 
L 4031 1441 
L 1416 1441 
Q 1456 1047 1700 850 
Q 1944 653 2381 653 
Q 2734 653 3104 758 
Q 3475 863 3866 1075 
L 3866 213 
Q 3469 63 3072 -14 
Q 2675 -91 2278 -91 
Q 1328 -91 801 392 
Q 275 875 275 1747 
Q 275 2603 792 3093 
Q 1309 3584 2216 3584 
Q 3041 3584 3536 3087 
Q 4031 2591 4031 1759 
z
M 2881 2131 
Q 2881 2450 2695 2645 
Q 2509 2841 2209 2841 
Q 1884 2841 1681 2658 
Q 1478 2475 1428 2131 
L 2881 2131 
z
" transform="scale(0.015625)"/>
      <path id="DejaVuSans-Bold-72" d="M 3138 2547 
Q 2991 2616 2845 2648 
Q 2700 2681 2553 2681 
Q 2122 2681 1889 2404 
Q 1656 2128 1656 1613 
L 1656 0 
L 538 0 
L 538 3500 
L 1656 3500 
L 1656 2925 
Q 1872 3269 2151 3426 
Q 2431 3584 2822 3584 
Q 2878 3584 2943 3579 
Q 3009 3575 3134 3559 
L 3138 2547 
z
" transform="scale(0.015625)"/>
      <path id="DejaVuSans-Bold-76" d="M 97 3500 
L 1216 3500 
L 2088 1081 
L 2956 3500 
L 4078 3500 
L 2700 0 
L 1472 0 
L 97 3500 
z
" transform="scale(0.015625)"/>
      <path id="DejaVuSans-Bold-61" d="M 2106 1575 
Q 1756 1575 1579 1456 
Q 1403 1338 1403 1106 
Q 1403 894 1545 773 
Q 1688 653 1941 653 
Q 2256 653 2472 879 
Q 2688 1106 2688 1447 
L 2688 1575 
L 2106 1575 
z
M 3816 1997 
L 3816 0 
L 2688 0 
L 2688 519 
Q 2463 200 2181 54 
Q 1900 -91 1497 -91 
Q 953 -91 614 226 
Q 275 544 275 1050 
Q 275 1666 698 1953 
Q 1122 2241 2028 2241 
L 2688 2241 
L 2688 2328 
Q 2688 2594 2478 2717 
Q 2269 2841 1825 2841 
Q 1466 2841 1156 2769 
Q 847 2697 581 2553 
L 581 3406 
Q 941 3494 1303 3539 
Q 1666 3584 2028 3584 
Q 2975 3584 3395 3211 
Q 3816 2838 3816 1997 
z
" transform="scale(0.015625)"/>
      <path id="DejaVuSans-Bold-20" transform="scale(0.015625)"/>
      <path id="DejaVuSans-Bold-31" d="M 750 831 
L 1813 831 
L 1813 3847 
L 722 3622 
L 722 4441 
L 1806 4666 
L 2950 4666 
L 2950 831 
L 4013 831 
L 4013 0 
L 750 0 
L 750 831 
z
" transform="scale(0.015625)"/>
      <path id="DejaVuSans-Bold-42" d="M 2456 2859 
Q 2741 2859 2887 2984 
Q 3034 3109 3034 3353 
Q 3034 3594 2887 3720 
Q 2741 3847 2456 3847 
L 1791 3847 
L 1791 2859 
L 2456 2859 
z
M 2497 819 
Q 2859 819 3042 972 
Q 3225 1125 3225 1434 
Q 3225 1738 3044 1889 
Q 2863 2041 2497 2041 
L 1791 2041 
L 1791 819 
L 2497 819 
z
M 3616 2497 
Q 4003 2384 4215 2081 
Q 4428 1778 4428 1338 
Q 4428 663 3972 331 
Q 3516 0 2584 0 
L 588 0 
L 588 4666 
L 2394 4666 
Q 3366 4666 3802 4372 
Q 4238 4078 4238 3431 
Q 4238 3091 4078 2852 
Q 3919 2613 3616 2497 
z
" transform="scale(0.015625)"/>
     </defs>
     <use xlink:href="#DejaVuSans-Bold-4d"/>
     <use xlink:href="#DejaVuSans-Bold-69" transform="translate(99.511719 0)"/>
     <use xlink:href="#DejaVuSans-Bold-6e" transform="translate(133.789062 0)"/>
     <use xlink:href="#DejaVuSans-Bold-65" transform="translate(204.980469 0)"/>
     <use xlink:href="#DejaVuSans-Bold-72" transform="translate(272.802734 0)"/>
     <use xlink:href="#DejaVuSans-Bold-76" transform="translate(322.119141 0)"/>
     <use xlink:href="#DejaVuSans-Bold-61" transform="translate(387.304688 0)"/>
     <use xlink:href="#DejaVuSans-Bold-20" transform="translate(454.785156 0)"/>
     <use xlink:href="#DejaVuSans-Bold-31" transform="translate(489.599609 0)"/>
     <use xlink:href="#DejaVuSans-Bold-42" transform="translate(559.179688 0)"/>
    </g>
   </g>
  </g>
 </g>
 <defs>
  <clipPath id="p6a5e2879a0">
   <rect x="73.08" y="35.04" width="417.96" height="274.74"/>
  </clipPath>
 </defs>
</svg>
